<svg width="16" height="16" viewBox="0 0 16 16" fill="none" xmlns="http://www.w3.org/2000/svg">
<path d="M15.1813 7.00403L11.436 5.5427L9.996 1.20937C9.928 1.0047 9.736 0.866699 9.52133 0.866699C9.30667 0.866699 9.11467 1.0047 9.04667 1.2087L7.60667 5.54203L3.86 7.00337C3.66867 7.07803 3.542 7.26337 3.542 7.47003C3.542 7.6767 3.66867 7.86003 3.86067 7.93537L7.60733 9.3967L9.04733 13.73C9.11533 13.934 9.30733 14.072 9.522 14.072C9.73667 14.072 9.92867 13.934 9.99667 13.73L11.4367 9.3967L15.1833 7.93537C15.3747 7.8607 15.5013 7.67537 15.5013 7.4687C15.5013 7.26203 15.3747 7.0787 15.1827 7.00403H15.1813ZM10.8547 8.5507C10.716 8.60403 10.608 8.71737 10.5613 8.85737L9.52133 11.9874L8.48133 8.8587C8.43467 8.7187 8.328 8.60537 8.18933 8.5507L5.41933 7.4707L8.18867 6.38937C8.32733 6.33603 8.43533 6.2227 8.482 6.08137L9.522 2.9527L10.562 6.08203C10.6087 6.22337 10.7153 6.3367 10.854 6.3907L13.624 7.4707L10.854 8.55203L10.8547 8.5507ZM4.442 2.54137H3.18867V1.3667C3.18867 1.0907 2.964 0.866699 2.68867 0.866699C2.41333 0.866699 2.18867 1.0907 2.18867 1.3667V2.54137H1C0.724 2.54137 0.5 2.76537 0.5 3.04137C0.5 3.31737 0.724 3.54137 1 3.54137H2.188V4.71603C2.188 4.99203 2.412 5.21603 2.688 5.21603C2.964 5.21603 3.188 4.99203 3.188 4.71603V3.54137H4.44133C4.718 3.54137 4.94133 3.31737 4.94133 3.04137C4.94133 2.76537 4.718 2.54137 4.44133 2.54137H4.442ZM6.132 12.956H5.39867V12.2787C5.39867 12.0027 5.17533 11.7787 4.89867 11.7787C4.622 11.7787 4.39867 12.0027 4.39867 12.2787V12.956H3.71333C3.43733 12.956 3.21333 13.18 3.21333 13.456C3.21333 13.732 3.43733 13.956 3.71333 13.956H4.4V14.6334C4.4 14.9094 4.62333 15.1334 4.9 15.1334C5.17667 15.1334 5.4 14.9094 5.4 14.6334V13.956H6.132C6.408 13.956 6.632 13.732 6.632 13.456C6.632 13.18 6.408 12.956 6.132 12.956Z" fill="#1DA1F2"/>
</svg>
