<svg width="16" height="17" viewBox="0 0 16 17" fill="none" xmlns="http://www.w3.org/2000/svg">
<path d="M13.1667 1.83331H2.83334C2.00668 1.83331 1.33334 2.50665 1.33334 3.33331V13.6666C1.33334 14.4933 2.00668 15.1666 2.83334 15.1666H13.1667C13.9933 15.1666 14.6667 14.4933 14.6667 13.6666V3.33331C14.6667 2.50665 13.9933 1.83331 13.1667 1.83331ZM2.83334 2.83331H13.1667C13.442 2.83331 13.6667 3.05798 13.6667 3.33331V9.78398L11.0947 7.21198C11.0013 7.11865 10.8747 7.06531 10.7413 7.06531H10.7393C10.606 7.06531 10.4773 7.11865 10.3847 7.21465L7.50668 10.1373L6.29801 8.93331C6.20468 8.83998 6.07801 8.78665 5.94468 8.78665C5.81601 8.76665 5.68134 8.83998 5.58801 8.93798L2.33334 12.2613V3.33331C2.33334 3.05798 2.55801 2.83331 2.83334 2.83331ZM2.33734 13.6866L5.94934 9.99731L10.1373 14.1666H2.83334C2.56534 14.1666 2.34868 13.952 2.33734 13.6866ZM13.1667 14.1666H11.5533L8.21534 10.842L10.7433 8.27531L13.6667 11.198V13.6666C13.6667 13.942 13.442 14.1666 13.1667 14.1666Z" fill="#1DA1F2"/>
<path d="M5.91203 7.06729C6.47978 7.06729 6.94003 6.60704 6.94003 6.03929C6.94003 5.47154 6.47978 5.01129 5.91203 5.01129C5.34428 5.01129 4.88403 5.47154 4.88403 6.03929C4.88403 6.60704 5.34428 7.06729 5.91203 7.06729Z" fill="#1DA1F2"/>
</svg>
